Coordinates
nRows=110
nColumns=2
inDegrees=yes
endheader
time	ankle_angle_r	
3.75	 18.716647	
3.8125	 18.747578	
3.875	 18.727764	
3.9375	 18.721541	
4	 18.718850	
4.0625	 18.699475	
4.125	 18.697011	
4.1875	 18.695874	
4.25	 18.697694	
4.3125	 18.714400	
4.375	 18.731615	
4.4375	 18.744506	
4.5	 18.731664	
4.5625	 18.706969	
4.625	 18.693971	
4.6875	 18.673180	
4.75	 18.679488	
4.8125	 18.722443	
4.875	 18.740944	
4.9375	 18.738559	
5	 18.717380	
5.0625	 18.681194	
5.125	 18.682994	
5.1875	 18.709334	
5.25	 18.742826	
5.3125	 18.775885	
5.375	 18.772113	
5.4375	 18.763859	
5.5	 18.757187	
5.5625	 18.726112	
5.625	 18.726806	
5.6875	 18.756174	
5.75	 18.760971	
5.8125	 18.766876	
5.875	 18.781340	
5.9375	 18.787641	
6	 18.784185	
6.0625	 18.755914	
6.125	 18.736946	
6.1875	 18.749168	
6.25	 18.755252	
6.3125	 18.759436	
6.375	 18.763819	
6.4375	 18.760638	
6.5	 18.770108	
6.5625	 18.769527	
6.625	 18.743515	
6.6875	 18.719987	
6.75	 18.719377	
6.8125	 18.754247	
6.875	 18.784686	
6.9375	 18.779249	
7	 18.772778	
7.0625	 18.760745	
7.125	 18.740961	
7.1875	 18.734976	
7.25	 18.726966	
7.3125	 18.732198	
7.375	 18.756004	
7.4375	 18.774595	
7.5	 18.794108	
7.5625	 18.779154	
7.625	 18.740946	
7.6875	 18.754619	
7.75	 18.777386	
7.8125	 18.784853	
7.875	 18.815394	
7.9375	 18.825853	
8	 18.814463	
8.0625	 18.805939	
8.125	 18.786923	
8.1875	 18.786880	
8.25	 18.794842	
8.3125	 18.779982	
8.375	 18.770270	
8.4375	 18.772508	
8.5	 18.777309	
8.5625	 18.768835	
8.625	 18.739133	
8.6875	 18.730796	
8.75	 18.741142	
8.8125	 18.744391	
8.875	 18.764070	
8.9375	 18.774818	
9	 18.758971	
9.0625	 18.751282	
9.125	 18.744906	
9.1875	 18.744211	
9.25	 18.746184	
9.3125	 18.734967	
9.375	 18.753744	
9.4375	 18.781173	
9.5	 18.774400	
9.5625	 18.780133	
9.625	 18.792504	
9.6875	 18.781160	
9.75	 18.760799	
9.8125	 18.736929	
9.875	 18.744465	
9.9375	 18.774848	
10	 18.778646	
10.0625	 18.775640	
10.125	 18.764902	
10.1875	 18.744732	
10.25	 18.748507	
10.3125	 18.755272	
10.375	 18.766589	
10.4375	 18.800988	
10.5	 18.818101	
10.5625	 18.804225	
